<?xml version="1.0" encoding="utf-8"?>
<!-- Generator: Adobe Illustrator 23.0.1, SVG Export Plug-In . SVG Version: 6.00 Build 0)  -->
<svg version="1.1" id="Capa_1" xmlns="http://www.w3.org/2000/svg" xmlns:xlink="http://www.w3.org/1999/xlink" x="0px" y="0px"
	 viewBox="0 0 512 512" style="enable-background:new 0 0 512 512;" xml:space="preserve">
<style type="text/css">
	.st0{fill:#FFFFFF;}
</style>
<g>
	<g>
		<path class="st0" d="M472.1,199.4c-23.6-30.9-56.3-54.3-92.9-66.6c-12.3-36.6-35.8-69.3-66.6-92.9C278.4,13.8,237.7,0,194.7,0
			C87.3,0,0,87.3,0,194.7c0,43,13.8,83.8,39.9,117.9c23.6,30.9,56.3,54.3,92.9,66.6c12.3,36.6,35.8,69.3,66.6,92.9
			c34.2,26.1,74.9,39.9,117.9,39.9C424.7,512,512,424.7,512,317.3C512,274.3,498.2,233.6,472.1,199.4z M383.3,242.9
			c21.1,18.7,33.6,45.7,33.6,74.4c0,54.9-44.6,99.5-99.5,99.5c-28.7,0-55.7-12.5-74.4-33.6c33.6-8.6,64.7-26.3,89.4-51
			C357,307.6,374.7,276.4,383.3,242.9z M30.1,194.7c0-90.8,73.8-164.6,164.6-164.6c72.8,0,137.9,48.9,158.2,118.9
			c4.3,14.8,6.5,30.2,6.5,45.8c0,1.8,0,3.7-0.1,5.5c-0.2,5.1-0.6,10.1-1.2,15.2c0,0,0,0,0,0c-8.9,71.1-62.6,127.7-132.2,141
			c-0.1-0.2-0.2-0.4-0.3-0.6c-0.4-1-0.8-1.9-1.2-2.9c-0.1-0.3-0.3-0.7-0.4-1c-0.5-1.2-0.9-2.5-1.3-3.7c0-0.1-0.1-0.3-0.1-0.4
			c-0.4-1.1-0.7-2.2-1-3.3c-0.1-0.4-0.2-0.7-0.3-1.1c-0.3-1.1-0.6-2.1-0.8-3.2c-0.1-0.2-0.1-0.5-0.2-0.7c-0.3-1.3-0.6-2.5-0.8-3.8
			c-0.1-0.3-0.1-0.6-0.2-1c-0.2-1-0.3-2-0.5-3c-0.1-0.4-0.1-0.7-0.2-1.1c-0.2-1.3-0.3-2.6-0.5-3.9c0-0.2,0-0.3,0-0.5
			c-0.1-1.2-0.2-2.3-0.3-3.5c0-0.2,0-0.4,0-0.5c25.7-4.7,49.6-17.2,68.4-35.9c22-22,35.4-51.2,37.7-82.1c0.2-3.1,0.3-6.3,0.3-9.5
			c0-2.8-0.1-5.5-0.3-8.2c-0.2-3.8-0.7-7.6-1.2-11.3c-0.1-0.5-0.2-1.1-0.3-1.6c-2-11.9-5.6-23.5-10.8-34.4c-0.2-0.4-0.4-0.9-0.7-1.3
			c-0.4-0.8-0.8-1.6-1.2-2.3c-0.6-1.2-1.3-2.4-1.9-3.6c0,0,0,0,0,0C285,90.6,241.6,65.1,194.7,65.1c-71.5,0-129.6,58.1-129.6,129.6
			c0,43.6,22,84.1,58.1,108c0,0.6-0.1,1.2-0.1,1.8c0,0.3,0,0.7-0.1,1c-0.1,1.8-0.2,3.5-0.2,5.3c0,0.3,0,0.7,0,1
			c-0.1,1.8-0.1,3.7-0.1,5.5c0,2.1,0,4.2,0.1,6.3c0,0.1,0,0.2,0,0.4c0.1,2,0.2,4.1,0.3,6.1c0,0.2,0,0.4,0,0.6c0.1,2,0.3,3.9,0.5,5.9
			c0,0.2,0,0.5,0.1,0.7c0.2,1.9,0.4,3.8,0.7,5.7c0,0.2,0,0.3,0.1,0.5C67.8,316.6,30.1,258.7,30.1,194.7z M221.5,290.5
			c9.4-33.2,35.8-59.6,69-69C281.1,254.7,254.7,281.1,221.5,290.5z M128.7,269.1c-21.1-18.7-33.6-45.7-33.6-74.4
			c0-54.9,44.6-99.5,99.5-99.5c28.7,0,55.7,12.5,74.4,33.6c-33.6,8.6-64.7,26.3-89.4,51C155,204.4,137.3,235.6,128.7,269.1z
			 M317.3,481.9c-72.8,0-137.9-48.9-158.2-118.9c-4.3-14.8-6.5-30.2-6.5-45.8c0-1.8,0-3.6,0.1-5.4c0.2-5.1,0.6-10.2,1.2-15.3
			c0,0,0,0,0,0c8.9-71.1,62.6-127.7,132.2-141c0.1,0.2,0.2,0.4,0.2,0.6c0.4,1,0.8,1.9,1.2,2.9c0.1,0.3,0.2,0.6,0.4,1
			c0.5,1.2,0.9,2.5,1.3,3.7c0,0.1,0.1,0.3,0.1,0.4c0.4,1.1,0.7,2.2,1,3.4c0.1,0.4,0.2,0.7,0.3,1.1c0.3,1.1,0.6,2.1,0.8,3.2
			c0.1,0.2,0.1,0.4,0.2,0.7c0.3,1.3,0.6,2.6,0.8,3.8c0.1,0.3,0.1,0.6,0.2,1c0.2,1,0.3,2,0.5,3.1c0,0.3,0.1,0.7,0.1,1
			c0.2,1.3,0.3,2.6,0.5,3.9c0,0.1,0,0.3,0,0.4c0.1,1.2,0.2,2.3,0.3,3.5c0,0.2,0,0.4,0,0.5c-25.7,4.7-49.6,17.2-68.4,35.9
			c-22,22-35.4,51.2-37.7,82.1c-0.2,3.1-0.3,6.3-0.3,9.5c0,2.8,0.1,5.5,0.3,8.2c0.1,1.5,0.2,3.1,0.4,4.6
			c1.8,17.6,7.1,34.7,15.7,50.1c22.9,41.1,66.3,66.7,113.3,66.7c71.5,0,129.6-58.1,129.6-129.6c0-43.6-22-84.1-58.1-108
			c0-0.6,0.1-1.2,0.1-1.8c0-0.3,0-0.7,0.1-1c0.1-1.8,0.2-3.5,0.2-5.3c0-0.3,0-0.7,0-1c0.1-1.8,0.1-3.7,0.1-5.5c0-2.1,0-4.2-0.1-6.3
			c0-0.1,0-0.2,0-0.4c-0.1-2-0.2-4.1-0.3-6.1c0-0.2,0-0.4,0-0.6c-0.1-2-0.3-3.9-0.5-5.9c0-0.2,0-0.5-0.1-0.7
			c-0.2-1.9-0.4-3.8-0.7-5.7c0-0.2,0-0.3-0.1-0.5c56.6,26.9,94.3,84.9,94.3,148.8C481.9,408.1,408.1,481.9,317.3,481.9z"/>
	</g>
</g>
</svg>
