<?xml version="1.0" encoding="utf-8"?>
<!-- Generator: Adobe Illustrator 23.0.1, SVG Export Plug-In . SVG Version: 6.00 Build 0)  -->
<svg version="1.1" id="Layer_1" xmlns="http://www.w3.org/2000/svg" xmlns:xlink="http://www.w3.org/1999/xlink" x="0px" y="0px"
	 viewBox="0 0 512 512" style="enable-background:new 0 0 512 512;" xml:space="preserve">
<style type="text/css">
	.st0{fill:#FFFFFF;}
</style>
<path class="st0" d="M392,14H120C53.8,14,0,67.8,0,134v164c0,66.2,53.8,120,120,120h272c66.2,0,120-53.8,120-120V134
	C512,67.8,458.2,14,392,14z M472,298c0,44.1-35.9,80-80,80H120c-44.1,0-80-35.9-80-80V134c0-44.1,35.9-80,80-80h272
	c44.1,0,80,35.9,80,80V298z M372,478c0,11-9,20-20,20H160c-26.5-1.1-26.5-39,0-40h192C363,458,372,467,372,478z M355.9,116.7
	c54.7,54.7,54.7,143.7,0,198.4c-7.8,7.8-20.5,7.8-28.3,0s-7.8-20.5,0-28.3c39.1-39.1,39.1-102.7,0-141.9c-7.8-7.8-7.8-20.5,0-28.3
	C335.4,108.8,348.1,108.8,355.9,116.7z M184.4,144.9c-39.1,39.1-39.1,102.7,0,141.9c7.8,7.8,7.8,20.5,0,28.3
	c-7.8,7.8-20.5,7.8-28.3,0c-54.7-54.7-54.7-143.7,0-198.4C175.6,98.6,202.4,125.4,184.4,144.9z M256,275c-33.1,0-60-26.9-60-60
	c3.3-79.6,116.7-79.6,120,0C316,248.1,289.1,275,256,275z M256,195c-11,0-20,9-20,20c1.1,26.5,38.9,26.5,40,0
	C276,204,267,195,256,195z"/>
</svg>
